<svg xmlns="http://www.w3.org/2000/svg" width="40.055" height="30" viewBox="0 0 40.055 30">
  <g id="AmericanExpress-dark" transform="translate(0)">
    <rect id="Rectangle" width="40.055" height="30" rx="2" fill="#0072ce"/>
    <path id="EXPRESS" d="M9.9,5.646h0l-3.163,0L5.96,4.766l-.826.877H0V0H5.232l.752.864L6.784,0h3.5a2.19,2.19,0,0,1,1.368.33V0h3.129a2.614,2.614,0,0,1,1.309.33V0h4.745V.33A1.861,1.861,0,0,1,22,0h2.658V.33A2.044,2.044,0,0,1,25.869,0h1.8V.8H25.732c-1.027,0-1.392.622-1.392,1.2,0,1.2.988,1.222,1.859,1.246l.189.005a.5.5,0,0,1,.342.09.333.333,0,0,1,.118.267.353.353,0,0,1-.114.264.54.54,0,0,1-.393.1H24.474v.867h1.875a1.514,1.514,0,0,0,1.317-.517V5.382a3.407,3.407,0,0,1-1.423.26H23.727V5.281a2.236,2.236,0,0,1-1.32.361H14.477v-1.3c0-.161-.017-.166-.176-.166h-.126V5.642h-2.61V4.119a3.112,3.112,0,0,1-1.221.2H9.9V5.645ZM20.669,3.982v.867h1.891c1.012,0,1.525-.429,1.525-1.276a1.13,1.13,0,0,0-.291-.857,1.553,1.553,0,0,0-1.108-.325l-.523-.014a1.151,1.151,0,0,1-.377-.046.309.309,0,0,1-.212-.3.309.309,0,0,1,.146-.292.674.674,0,0,1,.389-.073h1.78V.8H21.942c-1.023,0-1.388.622-1.388,1.2,0,1.2.987,1.222,1.858,1.246l.187.005a.518.518,0,0,1,.346.09.346.346,0,0,1,.118.267.355.355,0,0,1-.114.264.546.546,0,0,1-.4.1ZM16.848.8V4.848h3.239V4.01l-2.273,0V3.2h2.218V2.376H17.815V1.641h2.273V.8Zm-3.47,2.567h1.037a.948.948,0,0,1,.712.179,1.047,1.047,0,0,1,.158.715c0,.028,0,.053,0,.077v.506h.974v-.8a1.176,1.176,0,0,0-.16-.738,1.044,1.044,0,0,0-.476-.339,1.111,1.111,0,0,0,.688-1.076.952.952,0,0,0-.5-.9A2.37,2.37,0,0,0,14.643.8H12.4V4.848h.976V3.372ZM5.963,3.51h0L7.159,4.848H9.045V3.492h1.21c1.138,0,1.691-.443,1.691-1.355C11.947,1.253,11.4.8,10.31.8h-3.1L5.974,2.13,4.78.8H.877V4.848H4.721L5.963,3.511Zm2.115.97,0,0L6.588,2.833l1.49-1.595V4.48ZM4.23,4.006H1.843V3.2H3.974V2.376H1.843V1.641H4.277L5.339,2.819,4.23,4.006ZM27.665,2.814l0,0L27.652,2.8a.444.444,0,0,0-.076-.083,1.528,1.528,0,0,0-1.1-.325l-.526-.014a1.159,1.159,0,0,1-.374-.046.306.306,0,0,1-.212-.3.314.314,0,0,1,.141-.291.7.7,0,0,1,.393-.073h1.768V2.814ZM10.3,2.67H9.045V1.641H10.31c.271,0,.594.086.594.5C10.9,2.476,10.684,2.67,10.3,2.67Zm4.257-.122h-1.18V1.641h1.2a.947.947,0,0,1,.464.073.386.386,0,0,1,.2.364.436.436,0,0,1-.2.389A.939.939,0,0,1,14.557,2.549Z" transform="translate(9.59 15.668)" fill="#fff"/>
    <path id="AMERICAN" d="M8.491,5.641H6.8l-.292-.689v.687H3.243l-.374-.9H2.032l-.374.9H0V2.681L1.175,0H3.706l.327.666V0H7l.65,1.456L8.282,0H17.7a1.572,1.572,0,0,1,1.1.329V0H21.38V.329A3.358,3.358,0,0,1,23,0h3.738l.346.666V0h2.767l.377.666V0h2.7V5.639H30.2l-.515-.853v.853h-3.4l-.369-.9h-.837l-.378.9H22.937A3.322,3.322,0,0,1,21.38,5.3v.343H17.186V4.359c0-.181-.034-.191-.142-.194h-.157l0,1.474H8.782v-.7l-.291.7Zm15.983-1.7h2.017l.377.9h1.976V1.81l1.84,3.035H32.06V.8h-.994V3.617L29.36.8H27.882V4.626L26.239.8H24.784l-1.368,3.18h-.436a.951.951,0,0,1-.677-.209,1.4,1.4,0,0,1-.266-.949,1.336,1.336,0,0,1,.279-.916.93.93,0,0,1,.746-.239h.921V.8h-.94a1.964,1.964,0,0,0-1.474.472,2.112,2.112,0,0,0-.524,1.58A2.029,2.029,0,0,0,21.565,4.4a2.1,2.1,0,0,0,1.407.447h1.136l.366-.9ZM15.118.8V4.845h.969V3.374h1.042a.959.959,0,0,1,.707.173,1.069,1.069,0,0,1,.154.71c0,.027,0,.053,0,.077l0,.51h.978V4.05a1.165,1.165,0,0,0-.16-.742,1.134,1.134,0,0,0-.481-.34,1.143,1.143,0,0,0,.684-1.077.947.947,0,0,0-.491-.9A2.271,2.271,0,0,0,17.351.8ZM1.443,3.943H3.463l.373.9H5.81V1.676L7.222,4.845h.852L9.481,1.679l0,3.166h.995V.8H8.863L7.7,3.544,6.427.8H4.842V4.63L3.191.8H1.75L.012,4.845H1.066l.377-.9ZM19.58.8V4.845h.989V.8ZM11.2.8V4.845h3.242V4.009H12.173V3.2h2.218V2.372H12.173V1.643h2.273V.8ZM26.158,3.1H24.82l.668-1.611.669,1.61ZM3.111,3.1H1.788l.661-1.611L3.111,3.1Zm14.156-.558H16.088v-.9h1.2a1.013,1.013,0,0,1,.461.073.369.369,0,0,1,.2.357.412.412,0,0,1-.2.384A.906.906,0,0,1,17.267,2.542Z" transform="translate(2.723 8.712)" fill="#fff"/>
  </g>
</svg>
