<svg xmlns="http://www.w3.org/2000/svg" xmlns:xlink="http://www.w3.org/1999/xlink" width="40.055" height="30" viewBox="0 0 40.055 30">
  <defs>
    <clipPath id="clip-path">
      <rect id="Mask" width="40.055" height="30" rx="2" fill="#fff" stroke="#e6772f" stroke-miterlimit="10" stroke-width="1"/>
    </clipPath>
    <clipPath id="clip-path-2">
      <path id="Mask-2" data-name="Mask" d="M0,9.685H25.981a2,2,0,0,0,2-2V0S18.1,6.691,0,9.685Z" transform="translate(12.074 20.315)" fill="#e6772f"/>
    </clipPath>
  </defs>
  <g id="Discover-dark" transform="translate(0)">
    <g id="Rectangle">
      <g id="Mask-3" data-name="Mask" fill="#fff" stroke="#e6772f" stroke-miterlimit="10" stroke-width="1">
        <rect width="40.055" height="30" rx="2" stroke="none"/>
        <rect x="0.5" y="0.5" width="39.055" height="29" rx="1.5" fill="none"/>
      </g>
      <path id="Mask-4" data-name="Mask" d="M0,9.685H25.981a2,2,0,0,0,2-2V0S18.1,6.691,0,9.685Z" transform="translate(12.074 20.315)" fill="#e6772f"/>
    </g>
    <path id="Fill_13" data-name="Fill 13" d="M1.547,4.955H0V0H1.557C3.274,0,4.473,1.019,4.473,2.479a2.417,2.417,0,0,1-.986,1.9A3.014,3.014,0,0,1,1.547,4.955ZM1.06.839V4.115h.284A2.158,2.158,0,0,0,2.8,3.721,1.642,1.642,0,0,0,3.38,2.471,1.607,1.607,0,0,0,2.8,1.239a2.1,2.1,0,0,0-1.452-.4Z" transform="translate(3.033 11.542)" fill="#1a1919"/>
    <path id="Fill_14" data-name="Fill 14" d="M0,0H1.056V4.955H0Z" transform="translate(7.995 11.542)" fill="#1a1919"/>
    <path id="Fill_15" data-name="Fill 15" d="M2.19,1.981c-.637-.213-.824-.355-.824-.623,0-.311.333-.547.791-.547a1.138,1.138,0,0,1,.857.4L3.566.551A2.5,2.5,0,0,0,1.971,0,1.542,1.542,0,0,0,.277,1.417c0,.685.341,1.032,1.335,1.362a4.186,4.186,0,0,1,.734.283.58.58,0,0,1,.317.511.747.747,0,0,1-.824.7A1.268,1.268,0,0,1,.683,3.609L0,4.213a2.169,2.169,0,0,0,1.88.944A1.691,1.691,0,0,0,3.755,3.529c0-.788-.359-1.145-1.565-1.547" transform="translate(9.453 11.46)" fill="#1a1919"/>
    <path id="Fill_16" data-name="Fill 16" d="M0,2.591A2.7,2.7,0,0,0,2.868,5.177a3.154,3.154,0,0,0,1.326-.289V3.749a1.758,1.758,0,0,1-1.28.543A1.7,1.7,0,0,1,1.093,2.584,1.724,1.724,0,0,1,2.868.883a1.844,1.844,0,0,1,1.326.557V.3A2.918,2.918,0,0,0,2.89,0,2.741,2.741,0,0,0,0,2.591" transform="translate(13.541 11.43)" fill="#1a1919"/>
    <path id="Fill_17" data-name="Fill 17" d="M2.6,3.326,1.155,0H0L2.3,5.08h.568L5.219,0H4.073L2.6,3.326" transform="translate(23.715 11.542)" fill="#1a1919"/>
    <path id="Fill_18" data-name="Fill 18" d="M0,4.955H3v-.84H1.06V2.778H2.931V1.938H1.06V.839H3V0H0V4.955" transform="translate(29.415 11.542)" fill="#1a1919"/>
    <path id="Fill_19" data-name="Fill 19" d="M1.062,4.956H0V0H1.574C2.795,0,3.495.533,3.495,1.462a1.354,1.354,0,0,1-1.237,1.4L3.966,4.953l-1.3,0L1.2,2.963H1.062V4.955Zm0-4.176v1.5H1.37c.677,0,1.034-.264,1.034-.762,0-.482-.352-.736-1.017-.736Z" transform="translate(33.119 11.542)" fill="#1a1919"/>
    <path id="Fill_20" data-name="Fill 20" d="M5.664,2.583A2.716,2.716,0,0,1,2.832,5.166,2.716,2.716,0,0,1,0,2.583,2.716,2.716,0,0,1,2.832,0,2.716,2.716,0,0,1,5.664,2.583" transform="translate(18.201 11.449)" fill="#e6772f"/>
  </g>
</svg>
