<svg xmlns="http://www.w3.org/2000/svg" width="12" height="12" viewBox="0 0 12 12">
  <path id="Shape_Copy_9" data-name="Shape Copy 9" d="M6,12a6,6,0,1,1,6-6A6.007,6.007,0,0,1,6,12ZM6,1.5A4.5,4.5,0,1,0,10.5,6,4.505,4.505,0,0,0,6,1.5ZM6,9a.75.75,0,1,1,.75-.75A.751.751,0,0,1,6,9ZM6,6.75a1.153,1.153,0,0,1-.665-.119.033.033,0,0,1,0-.035c.049-.091.208-.38.256-.46A3.167,3.167,0,0,1,5.9,5.772c.063-.057.285-.221.353-.268s.263-.2.314-.25a1.382,1.382,0,0,0,.2-.3,1.662,1.662,0,0,0,.007-.478,1.338,1.338,0,0,0-.5-.52H5.872a2.4,2.4,0,0,0-.368.154.909.909,0,0,0-.2.211A2.968,2.968,0,0,0,5.25,4.8c0,.173-.343.449-.75.449a.912.912,0,0,1-.647-.211.24.24,0,0,1-.071-.183,3.64,3.64,0,0,1,.266-.871,3.468,3.468,0,0,1,.532-.572A5.568,5.568,0,0,1,5.638,3h.769a7.341,7.341,0,0,1,.911.281,3.192,3.192,0,0,1,.589.443,2.478,2.478,0,0,1,.285.527,3.279,3.279,0,0,1,0,.791,2.155,2.155,0,0,1-.142.35,2.8,2.8,0,0,1-.318.39,4.385,4.385,0,0,1-.39.281c-.075.048-.307.211-.37.26a1.054,1.054,0,0,0-.2.233A1.559,1.559,0,0,1,6,6.75Z" fill="#278ae2"/>
</svg>
