<svg id="Visa-dark" xmlns="http://www.w3.org/2000/svg" width="40.056" height="30" viewBox="0 0 40.056 30">
  <rect id="Rectangle" width="40.055" height="30" rx="2" fill="#26337a"/>
  <path id="Fill_3" data-name="Fill 3" d="M0,9.537,1.54,0H4L2.461,9.537H0" transform="translate(14.765 10.236)" fill="#fffffe"/>
  <path id="Fill_4" data-name="Fill 4" d="M7.384.4A6.091,6.091,0,0,0,5.179,0C2.746,0,1.033,1.294,1.019,3.147,1,4.518,2.241,5.283,3.174,5.738c.959.467,1.281.766,1.277,1.184-.007.639-.765.931-1.473.931a4.934,4.934,0,0,1-2.318-.5L.344,7.2,0,9.336a7.437,7.437,0,0,0,2.742.508c2.586,0,4.266-1.279,4.285-3.258C7.036,5.5,6.38,4.676,4.96,4,4.1,3.553,3.572,3.26,3.578,2.813c0-.4.446-.821,1.41-.821a4.322,4.322,0,0,1,1.842.366l.221.109L7.384.4" transform="translate(18.769 10.07)" fill="#fffffe"/>
  <path id="Fill_5" data-name="Fill 5" d="M2.585,9.532H0L3.655.79A1.213,1.213,0,0,1,4.945,0h1.9L8.838,9.53H6.554c0-.014-.228-1.106-.3-1.429h0l-1.7,0H4.522L3.1,8.1c-.1.255-.513,1.422-.517,1.434ZM5.118,2.574c-.067.187-.159.439-.226.623-.076.207-.1.28-.1.284l-.009.024c-.183.5-.8,2.168-.971,2.641H5.853c-.1-.468-.564-2.731-.569-2.753Z" transform="translate(25.619 10.246)" fill="#fffffe"/>
  <path id="Fill_6" data-name="Fill 6" d="M6.076,0,3.667,6.5,3.409,5.18A7.326,7.326,0,0,0,0,1.18L2.2,9.521l2.6,0L8.683,0H6.076" transform="translate(6.625 10.244)" fill="#fffffe"/>
  <path id="Fill_7" data-name="Fill 7" d="M4,0H.033L0,.2A8.258,8.258,0,0,1,5.979,5.187L5.117.8A1.034,1.034,0,0,0,4,0" transform="translate(4.055 10.238)" fill="#ec982d"/>
</svg>
