<svg id="Group" xmlns="http://www.w3.org/2000/svg" width="108" height="67" viewBox="0 0 108 67">
  <rect id="Rectangle_796" data-name="Rectangle 796" width="108" height="67" rx="3" fill="#ffeea1"/>
  <rect id="Rectangle_797" data-name="Rectangle 797" width="108" height="14" transform="translate(0 11)"/>
  <rect id="Rectangle_797_Copy" data-name="Rectangle 797 Copy" width="61" height="14" transform="translate(10 36)" fill="#fff"/>
  <path id="Shape" d="M.35,11.73h0l.952-.742-.091.051-.165.093-.159.09-.072.04c-.233.132-.5.285-.768.426l0,0a.187.187,0,0,1,.032-.022l.01-.006c.044-.026.159-.1.2-.132.1-.075.2-.165.317-.275A14.041,14.041,0,0,0,1.959,9.686l.031-.04c1.033-1.467,1.932-3,2.8-4.491l.113-.194,0-.005c.2-.337.4-.673.59-1,.49-.818.959-1.622,1.392-2.391.038-.067.076-.135.112-.2.055-.1.11-.2.166-.3A.512.512,0,0,0,7.206.99l0-.007,0-.01A.353.353,0,0,1,7.331.8,10.588,10.588,0,0,1,8.314.266L8.333.257,8.416.215,8.471.188c.122-.06.248-.123.37-.188.006.034.014.075.028.13l0,.013V.149A1.008,1.008,0,0,1,8.906.39c0,.17-.226,1.25-.24,1.318-.18.815-.4,1.665-.561,2.286l0,.014-.063.246-.033.131q-.066.252-.13.5c-.058.233-.116.465-.175.7l-.02.078,0,.019c-.237.933-.506,1.991-.683,3.029a8.275,8.275,0,0,0-.083,1.373l.028-.027c.643-.619,1.443-1.389,2.272-1.389h.056l.056.034.006,0,.012.007a.607.607,0,0,1,.089.063,2.944,2.944,0,0,1,.443.666l.005.009.018.032c.046.083.094.169.138.24.2.285.355.382.6.382a1.355,1.355,0,0,0,.264-.029A8.718,8.718,0,0,1,12.544,9.8l.113-.008c.151-.158.331-.353.623-.672.092-.109.176-.211.256-.306.875-1.051,1.058-1.27,3.013-1.943a.126.126,0,0,1,.027,0c.056,0,.1.067.135.126l.008.012.007.011a.466.466,0,0,0,.066.088,6.018,6.018,0,0,1,.742,2.481l.014.1,0,.016c.038.15.09.354.231.422a9.085,9.085,0,0,1,.9-.583,12.856,12.856,0,0,0,1.609-1c.282-.206.282-.206.822-.239l.1-.006.089.037.008,0a1.508,1.508,0,0,1,.15.067,1.206,1.206,0,0,1,.236.15l.012.009.005,0c.038.029.083.063.159.113a3.94,3.94,0,0,0,.791.371,2.01,2.01,0,0,0,.458.048,5.187,5.187,0,0,0,.8-.084h.008l.022,0,.1-.015.174-.025a3.069,3.069,0,0,1,.527-.043h.271l.427.035h.014c.952.078,1.937.159,2.907.159h.014c.121-.007.248-.008.37-.009A2.21,2.21,0,0,0,30,8.862l-1.832,1.426a3.392,3.392,0,0,1-1.07.128h-.545c-.622-.015-1.256-.054-1.816-.089l-.144-.009c-.466-.028-.948-.057-1.422-.072-.244.013-.488.042-.724.071a8.012,8.012,0,0,1-.96.077,2.917,2.917,0,0,1-.739-.087l-.056-.022-.028-.011-.043-.016-.049-.018a2.458,2.458,0,0,1-.423-.2c-.064-.035-.128-.078-.19-.119l-.011-.008L19.936,9.9l0,0-.009-.006a1.6,1.6,0,0,0-.388-.212.547.547,0,0,0-.111-.016l-.03,0-.031.022-.13.092-.49.287-.308.181-.005,0-.1.058c-.48.283-.991.584-1.495.87a1.507,1.507,0,0,1-.7.232.545.545,0,0,1-.521-.346,1,1,0,0,1-.067-.22l0-.01c-.008-.037-.016-.074-.026-.109a6.023,6.023,0,0,0-.5-2.056,8.92,8.92,0,0,1-1.5,1.44l-2.19.855c.086-.058.164-.118.256-.19l.037-.029.037-.029-.035,0c-.1.005-.1.005-.216.014l-.162.013a13.107,13.107,0,0,0-1.664.292H9.491a.916.916,0,0,1-.878-.51c-.027-.046-.061-.105-.1-.177l0,0,0,0a3.552,3.552,0,0,0-.381-.593L8.064,9.8a6.522,6.522,0,0,1-1.97,1.361l-.005,0,0,0-.242.13a.314.314,0,0,1-.153.044c-.122,0-.211-.1-.239-.272l0-.175a9.316,9.316,0,0,1,.092-1.5c.166-.8.4-1.609.6-2.322l.007-.027.031-.113,0-.015c.131-.465.267-.946.386-1.425l.007-.029,0-.019c.224-.885.455-1.8.637-2.73l-.038.062-.031.052-.031.052-.052.087q-.123.205-.247.409c-.388.645-.776,1.308-1.035,1.751l-.013.023-.043.073C4.987,6.5,4.218,7.811,3.379,9.063l-.126.17,0,.006-.006.009a11.3,11.3,0,0,1-1.44,1.7,3.257,3.257,0,0,1-.885.506l-.007,0a5.516,5.516,0,0,0-.558.273ZM18.664,9.76h0a.163.163,0,0,0-.043.018c-.148.075-.3.156-.441.235l-.04.022-.01.005-.171.094h.01A3.036,3.036,0,0,0,18.664,9.76Z" transform="translate(21 37)" fill="#0052a9"/>
  <text id="_123" data-name="123" transform="translate(80 47)" font-size="11" font-family="Arial-BoldMT, Arial" font-weight="700"><tspan x="0" y="0">123</tspan></text>
  <g id="Oval_76" data-name="Oval 76" transform="translate(75 36)" fill="none" stroke="#f94c45" stroke-miterlimit="10" stroke-width="2">
    <ellipse cx="14.5" cy="7" rx="14.5" ry="7" stroke="none"/>
    <ellipse cx="14.5" cy="7" rx="15.5" ry="8" fill="none"/>
  </g>
</svg>
