<svg xmlns="http://www.w3.org/2000/svg" width="40.055" height="30" viewBox="0 0 40.055 30">
  <g id="MasterCard-dark" transform="translate(0)">
    <rect id="Rectangle" width="40.055" height="30" rx="2" fill="#006"/>
    <path id="Fill_333" data-name="Fill 333" d="M19.255,9.758a9.693,9.693,0,0,1-9.627,9.757A9.693,9.693,0,0,1,0,9.758,9.693,9.693,0,0,1,9.628,0a9.693,9.693,0,0,1,9.627,9.758" transform="translate(4.034 5.485)" fill="#c00"/>
    <path id="Fill_334" data-name="Fill 334" d="M9.411,0A9.523,9.523,0,0,0,2.948,2.526a9.89,9.89,0,0,0-.972,1.033H3.921a10.01,10.01,0,0,1,.734,1.033H1.242A9.845,9.845,0,0,0,.687,5.626H5.21a9.8,9.8,0,0,1,.408,1.033H.28A9.818,9.818,0,0,0,0,7.691H5.9a9.956,9.956,0,0,1,.216,2.066,9.874,9.874,0,0,1-.5,3.1H.28a9.937,9.937,0,0,0,.407,1.034H5.21a9.817,9.817,0,0,1-.555,1.033H1.242a9.835,9.835,0,0,0,.734,1.032H3.921a9.7,9.7,0,0,1-.973,1.033,9.521,9.521,0,0,0,6.463,2.525,9.693,9.693,0,0,0,9.627-9.757A9.693,9.693,0,0,0,9.411,0" transform="translate(17.176 5.485)" fill="#f90"/>
    <path id="Fill_336" data-name="Fill 336" d="M.955,4.184A.989.989,0,0,1,0,3.085C0,2.1.669,1.534,1.835,1.534a3.536,3.536,0,0,1,.426.031A1.01,1.01,0,0,0,2.3,1.3c0-.267-.182-.366-.67-.366H1.6a3.4,3.4,0,0,0-1.075.182L.671.213A4.112,4.112,0,0,1,1.921,0,1.471,1.471,0,0,1,3,.349a1.127,1.127,0,0,1,.3.831,5.245,5.245,0,0,1-.085.8c-.122.782-.287,1.854-.312,2.137H2.03L2.05,3.7A1.3,1.3,0,0,1,.955,4.184ZM1.9,2.3c-.592,0-.892.206-.892.613a.368.368,0,0,0,.374.409c.424,0,.733-.414.752-1.006A1.776,1.776,0,0,0,1.9,2.3Z" transform="translate(9.277 13.99)" fill="#006"/>
    <path id="Fill_337" data-name="Fill 337" d="M4.191,4.949H3.146l.6-3.8-1.337,3.8H1.7L1.608,1.166.978,4.949H0L.817,0h1.5l.091,2.77L3.328,0H5L4.191,4.949" transform="translate(4.648 13.155)" fill="#006"/>
    <path id="Fill_338" data-name="Fill 338" d="M.955,4.184A.989.989,0,0,1,0,3.085C0,2.1.669,1.534,1.835,1.534a3.536,3.536,0,0,1,.426.031A1,1,0,0,0,2.3,1.3c0-.267-.181-.366-.67-.366H1.6a3.422,3.422,0,0,0-1.076.182c.011-.066.144-.9.146-.905A4.112,4.112,0,0,1,1.921,0,1.471,1.471,0,0,1,3,.349a1.127,1.127,0,0,1,.3.831,5.245,5.245,0,0,1-.085.8l0,.012c-.092.591-.284,1.822-.31,2.124H2.03L2.05,3.7A1.3,1.3,0,0,1,.955,4.184ZM1.9,2.3c-.592,0-.892.206-.892.613a.368.368,0,0,0,.374.409c.424,0,.733-.414.751-1.006A1.75,1.75,0,0,0,1.9,2.3Z" transform="translate(25.743 13.99)" fill="#006"/>
    <path id="Fill_339" data-name="Fill 339" d="M1.577,4.573A2.36,2.36,0,0,1,.826,4.7.77.77,0,0,1,0,3.82,9.409,9.409,0,0,1,.144,2.747C.2,2.371.6,0,.6,0H1.636L1.514.609h.628L2,1.577h-.63c-.121.765-.293,1.719-.295,1.845,0,.208.109.3.358.3a.84.84,0,0,0,.282-.038l-.138.891" transform="translate(15.241 13.47)" fill="#006"/>
    <path id="Fill_340" data-name="Fill 340" d="M1.787,4.184H1.769A1.594,1.594,0,0,1,0,2.389C0,1,.765,0,1.818,0a1.341,1.341,0,0,1,1.4,1.456,4.336,4.336,0,0,1-.128.99H1.025a.706.706,0,0,0,.14.575.986.986,0,0,0,.764.252,2.431,2.431,0,0,0,1.08-.253l-.174,1A3.483,3.483,0,0,1,1.787,4.184ZM1.768.916c-.331,0-.567.255-.663.719H2.252c0-.006,0-.014,0-.023a.751.751,0,0,0-.12-.557A.472.472,0,0,0,1.768.916Z" transform="translate(17.169 13.99)" fill="#006"/>
    <path id="Fill_341" data-name="Fill 341" d="M.4,1.363a1.174,1.174,0,0,0,.8,1.124c.423.2.489.262.489.444,0,.251-.187.364-.6.364a2.9,2.9,0,0,1-.937-.159L0,4.065a4.808,4.808,0,0,0,1.088.119c1.1,0,1.612-.426,1.612-1.345a1.1,1.1,0,0,0-.737-1.122c-.438-.2-.489-.249-.489-.437,0-.218.174-.329.512-.329a5.7,5.7,0,0,1,.751.06L2.886.078A6.965,6.965,0,0,0,1.966,0C.8,0,.392.619.4,1.363" transform="translate(12.405 13.99)" fill="#006"/>
    <path id="Fill_342" data-name="Fill 342" d="M4.7,1.226a1.968,1.968,0,0,1,.934.267L5.809.419A3.045,3.045,0,0,0,4.66,0,2.075,2.075,0,0,0,2.953.932c-.607-.2-.856.208-1.162.618l-.272.064a2.083,2.083,0,0,0,.033-.4H.593C.462,2.456.229,3.717.048,4.964L0,5.235H1.046c.175-1.149.27-1.885.328-2.383l.394-.221c.059-.222.243-.3.612-.288a4.568,4.568,0,0,0-.074.825c0,1.317.7,2.137,1.827,2.137a3.222,3.222,0,0,0,.924-.145l.183-1.128a2.013,2.013,0,0,1-.888.254c-.608,0-.975-.455-.975-1.206,0-1.09.547-1.853,1.327-1.853" transform="translate(20.384 12.87)" fill="#006"/>
    <path id="Fill_343" data-name="Fill 343" d="M3.28,5.019c-.755,0-1.262-.671-1.262-1.67a3.479,3.479,0,0,1,.253-1.306H2.238c-.262,0-.424.162-.649.387-.067.067-.135.135-.214.208-.089.688-.2,1.466-.329,2.312H0l.048-.271c.06-.409.126-.827.19-1.231C.369,2.618.505,1.761.593.924h.959a6.015,6.015,0,0,1-.046.606h0l.052.015c.134.043.492.157.839.229a1.622,1.622,0,0,1,1.321-1,1.334,1.334,0,0,1,1,.657L4.949,0H5.98l-.8,4.949H4.195l.049-.374A1.229,1.229,0,0,1,3.28,5.019Zm.636-3.145c-.477,0-.811.556-.811,1.352,0,.527.18.794.535.794.488,0,.829-.558.829-1.357C4.47,2.154,4.274,1.874,3.917,1.874Z" transform="translate(28.988 13.155)" fill="#006"/>
    <path id="Fill_344" data-name="Fill 344" d="M4.191,4.949H3.146l.6-3.8-1.337,3.8H1.7L1.608,1.167.978,4.949H0L.817,0h1.5l.042,3.064L3.376,0H5L4.191,4.949" transform="translate(4.949 12.862)" fill="#fff"/>
    <path id="Fill_345" data-name="Fill 345" d="M.955,4.185A.99.99,0,0,1,0,3.085C0,2.1.669,1.534,1.835,1.534a3.373,3.373,0,0,1,.426.031A1.011,1.011,0,0,0,2.3,1.3c0-.266-.182-.365-.67-.365H1.6a3.406,3.406,0,0,0-1.071.181C.536,1.052.668.222.67.213A4.1,4.1,0,0,1,1.921,0,1.471,1.471,0,0,1,3,.349a1.128,1.128,0,0,1,.3.832,5.271,5.271,0,0,1-.085.8C3.138,2.431,2.924,3.8,2.9,4.115H2.03L2.05,3.7A1.3,1.3,0,0,1,.955,4.185ZM1.9,2.306c-.592,0-.892.206-.892.612a.369.369,0,0,0,.374.41c.424,0,.733-.414.751-1.006A1.752,1.752,0,0,0,1.9,2.306Z" transform="translate(9.578 13.696)" fill="#fff"/>
    <path id="Fill_346" data-name="Fill 346" d="M3.5.257,3.332,1.331A1.976,1.976,0,0,0,2.4,1.064c-.78,0-1.328.764-1.328,1.855,0,.751.368,1.2.976,1.2a2,2,0,0,0,.888-.254L2.75,5a3.222,3.222,0,0,1-.924.145C.7,5.143,0,4.323,0,3.006,0,1.237.969,0,2.354,0A3.577,3.577,0,0,1,3.5.257" transform="translate(22.99 12.738)" fill="#fff"/>
    <path id="Fill_347" data-name="Fill 347" d="M.955,4.185A.99.99,0,0,1,0,3.085C0,2.1.669,1.534,1.835,1.534a3.344,3.344,0,0,1,.425.031A1.011,1.011,0,0,0,2.3,1.3c0-.266-.182-.365-.67-.365H1.595a3.4,3.4,0,0,0-1.07.181L.67.213A4.1,4.1,0,0,1,1.921,0,1.469,1.469,0,0,1,3,.349a1.126,1.126,0,0,1,.3.831,5.063,5.063,0,0,1-.084.8C3.138,2.431,2.924,3.8,2.9,4.115H2.03L2.05,3.7A1.3,1.3,0,0,1,.955,4.185ZM1.9,2.306c-.592,0-.892.206-.892.612a.369.369,0,0,0,.374.41c.424,0,.733-.414.751-1.006A1.752,1.752,0,0,0,1.9,2.306Z" transform="translate(26.044 13.696)" fill="#fff"/>
    <path id="Fill_348" data-name="Fill 348" d="M1.577,4.573A2.359,2.359,0,0,1,.827,4.7.771.771,0,0,1,0,3.82,9.434,9.434,0,0,1,.144,2.747C.2,2.37.6,0,.6,0H1.636L1.515.609h.533l-.142.967H1.371c-.121.766-.293,1.719-.295,1.845,0,.208.11.3.358.3a.826.826,0,0,0,.282-.038l-.139.891" transform="translate(15.542 13.177)" fill="#fff"/>
    <path id="Fill_349" data-name="Fill 349" d="M1.769,4.185A1.594,1.594,0,0,1,0,2.389C0,1,.764,0,1.817,0a1.342,1.342,0,0,1,1.4,1.457,4.4,4.4,0,0,1-.128.99H1.025a.706.706,0,0,0,.14.575.984.984,0,0,0,.763.252A2.422,2.422,0,0,0,3.009,3.02l-.173,1A3.551,3.551,0,0,1,1.769,4.185Zm0-3.268c-.331,0-.567.255-.663.718H2.252c0-.006,0-.014,0-.024a.75.75,0,0,0-.119-.556A.472.472,0,0,0,1.768.917Z" transform="translate(17.47 13.696)" fill="#fff"/>
    <path id="Fill_350" data-name="Fill 350" d="M.4,1.363a1.175,1.175,0,0,0,.8,1.124c.423.2.489.261.489.444,0,.251-.187.364-.6.364a2.909,2.909,0,0,1-.937-.158L0,4.065a4.778,4.778,0,0,0,1.087.12c1.1,0,1.612-.425,1.612-1.345a1.1,1.1,0,0,0-.737-1.121c-.438-.2-.489-.249-.489-.438,0-.218.174-.33.512-.33a5.737,5.737,0,0,1,.751.061L2.886.079A7.022,7.022,0,0,0,1.966,0C.8,0,.392.619.4,1.363" transform="translate(12.706 13.696)" fill="#fff"/>
    <path id="Fill_351" data-name="Fill 351" d="M1.262,5.018C.507,5.018,0,4.347,0,3.348,0,2.011.779.881,1.7.881a1.179,1.179,0,0,1,1,.549L2.93,0H3.962l-.8,4.949H2.177l.049-.374A1.234,1.234,0,0,1,1.262,5.018ZM1.9,1.874c-.477,0-.81.556-.81,1.352,0,.526.18.793.536.793.488,0,.829-.557.829-1.355C2.453,2.154,2.256,1.874,1.9,1.874Z" transform="translate(31.307 12.862)" fill="#fff"/>
    <path id="Fill_352" data-name="Fill 352" d="M.593.043C.462,1.289.229,2.551.048,3.8L0,4.068H1.045c.374-2.461.464-2.942,1.051-2.882a3.986,3.986,0,0,1,.4-1.167c-.438-.093-.682.158-1,.635a3.714,3.714,0,0,0,.063-.61H.593" transform="translate(29.289 13.743)" fill="#fff"/>
    <path id="Fill_353" data-name="Fill 353" d="M.593.043C.462,1.289.229,2.551.047,3.8L0,4.068H1.046c.374-2.461.464-2.942,1.05-2.882a4.011,4.011,0,0,1,.4-1.167c-.437-.093-.682.158-1,.635a3.7,3.7,0,0,0,.063-.61H.593" transform="translate(20.685 13.743)" fill="#fff"/>
  </g>
</svg>
